<?xml version="1.0" standalone="no"?><!DOCTYPE svg PUBLIC "-//W3C//DTD SVG 1.1//EN" "http://www.w3.org/Graphics/SVG/1.1/DTD/svg11.dtd"><svg t="1645376712464" class="icon" viewBox="0 0 1024 1024" version="1.1" xmlns="http://www.w3.org/2000/svg" p-id="1634" xmlns:xlink="http://www.w3.org/1999/xlink" width="200" height="200"><defs><style type="text/css"></style></defs><path d="M514.048 540.672l325.632-186.368-329.728-206.848-325.632 202.752 329.728 190.464z m-409.6-188.416l405.504-253.952 407.552 256-405.504 233.472-407.552-235.52z m798.72 137.216c10.24-6.144 22.528-2.048 28.672 8.192s2.048 22.528-8.192 28.672l-411.648 235.52-411.648-237.568c-10.24-6.144-12.288-18.432-8.192-28.672s18.432-12.288 28.672-8.192l391.168 225.28 391.168-223.232z m-782.336 163.84l391.168 225.28 391.168-225.28c10.24-6.144 22.528-2.048 28.672 8.192s2.048 22.528-8.192 28.672l-411.648 237.568-411.648-237.568c-10.24-6.144-12.288-18.432-8.192-28.672s18.432-14.336 28.672-8.192z" p-id="1635"></path></svg>